# Blender v2.81 (sub 16) OBJ File: 'cible.blend'
# www.blender.org
v -0.370157 -0.065974 0.057507
v -0.371203 -0.065590 -0.050812
v -0.375865 0.007611 0.057823
v -0.376912 0.007994 -0.050496
v -0.367109 0.080895 0.057998
v -0.368156 0.081279 -0.050321
v -0.344225 0.151064 0.058025
v -0.345272 0.151447 -0.050294
v -0.308093 0.215419 0.057904
v -0.309139 0.215803 -0.050415
v -0.260100 0.271489 0.057639
v -0.261147 0.271873 -0.050680
v -0.202092 0.317119 0.057241
v -0.203139 0.317502 -0.051079
v -0.136298 0.350554 0.056723
v -0.137344 0.350938 -0.051596
v -0.065245 0.370511 0.056108
v -0.066292 0.370894 -0.052211
v 0.008335 0.376221 0.055417
v 0.007288 0.376605 -0.052902
v 0.081614 0.367466 0.054678
v 0.080568 0.367850 -0.053641
v 0.151778 0.344583 0.053919
v 0.150731 0.344966 -0.054400
v 0.216128 0.308449 0.053170
v 0.215082 0.308833 -0.055149
v 0.272194 0.260455 0.052458
v 0.271147 0.260839 -0.055861
v 0.317819 0.202445 0.051812
v 0.316772 0.202828 -0.056507
v 0.351250 0.136647 0.051256
v 0.350204 0.137030 -0.057063
v 0.371203 0.065590 0.050812
v 0.370157 0.065974 -0.057507
v 0.376912 -0.007994 0.050496
v 0.375865 -0.007611 -0.057823
v 0.368156 -0.081279 0.050321
v 0.367109 -0.080895 -0.057998
v 0.345271 -0.151447 0.050294
v 0.344225 -0.151064 -0.058025
v 0.309139 -0.215803 0.050415
v 0.308093 -0.215420 -0.057904
v 0.261146 -0.271873 0.050680
v 0.260100 -0.271490 -0.057639
v 0.203138 -0.317503 0.051079
v 0.202092 -0.317119 -0.057241
v 0.137344 -0.350938 0.051596
v 0.136297 -0.350554 -0.056723
v 0.066291 -0.370894 0.052211
v 0.065245 -0.370511 -0.056108
v -0.007289 -0.376605 0.052902
v -0.008335 -0.376221 -0.055417
v -0.080568 -0.367850 0.053641
v -0.081615 -0.367466 -0.054678
v -0.150732 -0.344966 0.054400
v -0.151778 -0.344582 -0.053919
v -0.215082 -0.308833 0.055149
v -0.216129 -0.308449 -0.053170
v -0.271148 -0.260839 0.055861
v -0.272194 -0.260455 -0.052458
v -0.316773 -0.202828 0.056507
v -0.317819 -0.202444 -0.051812
v -0.350204 -0.137030 0.057063
v -0.351250 -0.136646 -0.051256
vt 1.000000 1.000000
vt 1.000000 0.500000
vt 0.968750 0.500000
vt 0.968750 1.000000
vt 0.937500 0.500000
vt 0.937500 1.000000
vt 0.906250 0.500000
vt 0.906250 1.000000
vt 0.875000 0.500000
vt 0.875000 1.000000
vt 0.843750 0.500000
vt 0.843750 1.000000
vt 0.812500 0.500000
vt 0.812500 1.000000
vt 0.781250 0.500000
vt 0.781250 1.000000
vt 0.750000 0.500000
vt 0.750000 1.000000
vt 0.718750 0.500000
vt 0.718750 1.000000
vt 0.687500 0.500000
vt 0.687500 1.000000
vt 0.656250 0.500000
vt 0.656250 1.000000
vt 0.625000 0.500000
vt 0.625000 1.000000
vt 0.593750 0.500000
vt 0.593750 1.000000
vt 0.562500 0.500000
vt 0.562500 1.000000
vt 0.531250 0.500000
vt 0.531250 1.000000
vt 0.500000 0.500000
vt 0.500000 1.000000
vt 0.468750 0.500000
vt 0.468750 1.000000
vt 0.437500 0.500000
vt 0.437500 1.000000
vt 0.406250 0.500000
vt 0.406250 1.000000
vt 0.375000 0.500000
vt 0.375000 1.000000
vt 0.343750 0.500000
vt 0.343750 1.000000
vt 0.312500 0.500000
vt 0.312500 1.000000
vt 0.281250 0.500000
vt 0.281250 1.000000
vt 0.250000 0.500000
vt 0.250000 1.000000
vt 0.218750 0.500000
vt 0.218750 1.000000
vt 0.187500 0.500000
vt 0.187500 1.000000
vt 0.156250 0.500000
vt 0.156250 1.000000
vt 0.125000 0.500000
vt 0.125000 1.000000
vt 0.093750 0.500000
vt 0.093750 1.000000
vt 0.062500 0.500000
vt 0.028269 0.341844
vt 0.471731 0.158156
vt 0.158156 0.028269
vt 0.062500 1.000000
vt 0.031250 0.500000
vt 0.031250 1.000000
vt 0.000000 0.500000
vt 0.985388 0.296822
vt 0.514611 0.203179
vt 0.796822 0.014612
vt 0.341844 0.471731
vt 0.250000 0.490000
vt 0.296822 0.485388
vt 0.203179 0.485389
vt 0.158156 0.471731
vt 0.080295 0.419706
vt 0.116663 0.449553
vt 0.050447 0.383337
vt 0.010000 0.250000
vt 0.014612 0.296822
vt 0.014611 0.203179
vt 0.028269 0.158156
vt 0.050447 0.116663
vt 0.080294 0.080294
vt 0.116663 0.050447
vt 0.250000 0.010000
vt 0.203178 0.014612
vt 0.341844 0.028269
vt 0.296822 0.014612
vt 0.419706 0.080294
vt 0.383337 0.050447
vt 0.449553 0.116663
vt 0.490000 0.250000
vt 0.485388 0.203178
vt 0.485388 0.296822
vt 0.471731 0.341844
vt 0.419706 0.419706
vt 0.449553 0.383337
vt 0.383337 0.449553
vt 0.000000 1.000000
vt 0.703179 0.485389
vt 0.796822 0.485388
vt 0.750000 0.490000
vt 0.883337 0.449553
vt 0.841844 0.471731
vt 0.949553 0.383337
vt 0.919706 0.419706
vt 0.971731 0.341844
vt 0.985388 0.203178
vt 0.990000 0.250000
vt 0.971731 0.158156
vt 0.949553 0.116663
vt 0.919706 0.080294
vt 0.883337 0.050447
vt 0.841844 0.028269
vt 0.703178 0.014612
vt 0.750000 0.010000
vt 0.616663 0.050447
vt 0.658156 0.028269
vt 0.550447 0.116663
vt 0.580294 0.080294
vt 0.528269 0.158156
vt 0.514612 0.296822
vt 0.510000 0.250000
vt 0.550447 0.383337
vt 0.528269 0.341844
vt 0.580295 0.419706
vt 0.616663 0.449553
vt 0.658156 0.471731
vn -0.9970 -0.0774 0.0094
vn -0.9929 0.1186 0.0100
vn -0.9507 0.3100 0.0103
vn -0.8719 0.4896 0.0102
vn -0.7597 0.6503 0.0096
vn -0.6182 0.7860 0.0088
vn -0.4530 0.8915 0.0075
vn -0.2704 0.9627 0.0060
vn -0.0773 0.9970 0.0043
vn 0.1187 0.9929 0.0024
vn 0.3101 0.9507 0.0004
vn 0.4896 0.8720 -0.0016
vn 0.6503 0.7597 -0.0036
vn 0.7860 0.6182 -0.0054
vn 0.8915 0.4530 -0.0070
vn 0.9627 0.2704 -0.0083
vn 0.9970 0.0774 -0.0094
vn 0.9929 -0.1186 -0.0100
vn 0.9507 -0.3100 -0.0103
vn 0.8719 -0.4896 -0.0102
vn 0.7596 -0.6503 -0.0096
vn 0.6182 -0.7860 -0.0088
vn 0.4530 -0.8915 -0.0075
vn 0.2704 -0.9627 -0.0060
vn 0.0773 -0.9970 -0.0043
vn -0.1187 -0.9929 -0.0024
vn -0.3101 -0.9507 -0.0004
vn -0.4896 -0.8720 0.0016
vn -0.6503 -0.7597 0.0036
vn -0.7860 -0.6182 0.0054
vn -0.0097 0.0035 -0.9999
vn -0.8915 -0.4530 0.0070
vn -0.9627 -0.2704 0.0083
vn 0.0097 -0.0035 0.9999
vn 0.7597 -0.6503 -0.0096
s off
f 2/1/1 1/2/1 3/3/1
f 4/4/2 3/3/2 5/5/2
f 6/6/3 5/5/3 7/7/3
f 8/8/4 7/7/4 9/9/4
f 10/10/5 9/9/5 11/11/5
f 12/12/6 11/11/6 13/13/6
f 14/14/7 13/13/7 15/15/7
f 16/16/8 15/15/8 17/17/8
f 18/18/9 17/17/9 19/19/9
f 20/20/10 19/19/10 21/21/10
f 22/22/11 21/21/11 23/23/11
f 24/24/12 23/23/12 25/25/12
f 26/26/13 25/25/13 27/27/13
f 28/28/14 27/27/14 29/29/14
f 30/30/15 29/29/15 31/31/15
f 32/32/16 31/31/16 33/33/16
f 34/34/17 33/33/17 35/35/17
f 36/36/18 35/35/18 37/37/18
f 38/38/19 37/37/19 39/39/19
f 40/40/20 39/39/20 41/41/20
f 42/42/21 41/41/21 43/43/21
f 44/44/22 43/43/22 45/45/22
f 46/46/23 45/45/23 47/47/23
f 48/48/24 47/47/24 49/49/24
f 50/50/25 49/49/25 51/51/25
f 52/52/26 51/51/26 53/53/26
f 54/54/27 53/53/27 55/55/27
f 56/56/28 55/55/28 57/57/28
f 58/58/29 57/57/29 59/59/29
f 60/60/30 59/59/30 61/61/30
f 54/62/31 22/63/31 38/64/31
f 62/65/32 61/61/32 63/66/32
f 64/67/33 63/66/33 1/68/33
f 15/69/34 47/70/34 31/71/34
f 2/1/1 3/3/1 4/4/1
f 4/4/2 5/5/2 6/6/2
f 6/6/3 7/7/3 8/8/3
f 8/8/4 9/9/4 10/10/4
f 10/10/5 11/11/5 12/12/5
f 12/12/6 13/13/6 14/14/6
f 14/14/7 15/15/7 16/16/7
f 16/16/8 17/17/8 18/18/8
f 18/18/9 19/19/9 20/20/9
f 20/20/10 21/21/10 22/22/10
f 22/22/11 23/23/11 24/24/11
f 24/24/12 25/25/12 26/26/12
f 26/26/13 27/27/13 28/28/13
f 28/28/14 29/29/14 30/30/14
f 30/30/15 31/31/15 32/32/15
f 32/32/16 33/33/16 34/34/16
f 34/34/17 35/35/17 36/36/17
f 36/36/18 37/37/18 38/38/18
f 38/38/19 39/39/19 40/40/19
f 40/40/20 41/41/20 42/42/20
f 42/42/35 43/43/35 44/44/35
f 44/44/22 45/45/22 46/46/22
f 46/46/23 47/47/23 48/48/23
f 48/48/24 49/49/24 50/50/24
f 50/50/25 51/51/25 52/52/25
f 52/52/26 53/53/26 54/54/26
f 54/54/27 55/55/27 56/56/27
f 56/56/28 57/57/28 58/58/28
f 58/58/29 59/59/29 60/60/29
f 60/60/30 61/61/30 62/65/30
f 6/72/31 2/73/31 4/74/31
f 2/73/31 6/72/31 64/75/31
f 64/75/31 6/72/31 62/76/31
f 62/76/31 58/77/31 60/78/31
f 58/77/31 54/62/31 56/79/31
f 54/62/31 50/80/31 52/81/31
f 50/80/31 54/62/31 48/82/31
f 48/82/31 54/62/31 46/83/31
f 46/83/31 38/64/31 44/84/31
f 44/84/31 38/64/31 42/85/31
f 42/85/31 38/64/31 40/86/31
f 38/64/31 34/87/31 36/88/31
f 34/87/31 30/89/31 32/90/31
f 30/89/31 26/91/31 28/92/31
f 26/91/31 22/63/31 24/93/31
f 22/63/31 18/94/31 20/95/31
f 18/94/31 22/63/31 16/96/31
f 16/96/31 22/63/31 14/97/31
f 14/97/31 10/98/31 12/99/31
f 10/98/31 6/72/31 8/100/31
f 62/76/31 6/72/31 58/77/31
f 58/77/31 6/72/31 54/62/31
f 38/64/31 22/63/31 34/87/31
f 34/87/31 22/63/31 30/89/31
f 30/89/31 22/63/31 26/91/31
f 14/97/31 22/63/31 10/98/31
f 10/98/31 22/63/31 6/72/31
f 54/62/31 38/64/31 46/83/31
f 6/72/31 22/63/31 54/62/31
f 62/65/32 63/66/32 64/67/32
f 64/67/33 1/68/33 2/101/33
f 63/102/34 3/103/34 1/104/34
f 3/103/34 7/105/34 5/106/34
f 7/105/34 11/107/34 9/108/34
f 11/107/34 7/105/34 13/109/34
f 13/109/34 7/105/34 15/69/34
f 15/69/34 19/110/34 17/111/34
f 19/110/34 15/69/34 21/112/34
f 21/112/34 15/69/34 23/113/34
f 23/113/34 31/71/34 25/114/34
f 25/114/34 31/71/34 27/115/34
f 27/115/34 31/71/34 29/116/34
f 31/71/34 35/117/34 33/118/34
f 35/117/34 39/119/34 37/120/34
f 39/119/34 43/121/34 41/122/34
f 43/121/34 47/70/34 45/123/34
f 47/70/34 51/124/34 49/125/34
f 51/124/34 55/126/34 53/127/34
f 55/126/34 63/102/34 57/128/34
f 57/128/34 63/102/34 59/129/34
f 59/129/34 63/102/34 61/130/34
f 63/102/34 7/105/34 3/103/34
f 31/71/34 47/70/34 35/117/34
f 35/117/34 47/70/34 39/119/34
f 39/119/34 47/70/34 43/121/34
f 47/70/34 63/102/34 51/124/34
f 51/124/34 63/102/34 55/126/34
f 63/102/34 15/69/34 7/105/34
f 15/69/34 31/71/34 23/113/34
f 63/102/34 47/70/34 15/69/34
