# Blender v2.82 (sub 7) OBJ File: 'Projet_Integral.blend'
# www.blender.org
v -0.000003 -0.154535 -0.045102
v -0.039063 -0.154535 -0.022550
v -0.039063 -0.154535 0.022552
v -0.000003 -0.154535 0.045104
v 0.039057 -0.154535 0.022552
v 0.039057 -0.154535 -0.022550
v -0.000003 0.053219 -0.039916
v -0.034572 0.053219 -0.019957
v -0.034572 0.053219 0.019959
v -0.000003 0.053219 0.039918
v 0.034566 0.053219 0.019959
v 0.034566 0.053219 -0.019957
v -0.000003 -0.126750 0.085716
v -0.000003 -0.096674 0.102505
v -0.000003 -0.051947 0.108101
v -0.000003 -0.007219 0.102505
v -0.000003 0.028361 0.079279
v 0.068653 0.028361 0.039640
v 0.088768 -0.007219 0.051253
v 0.093614 -0.051947 0.054051
v 0.088768 -0.096674 0.051253
v 0.074229 -0.126750 0.042859
v -0.074235 -0.126750 -0.042857
v -0.088774 -0.096674 -0.051251
v -0.093621 -0.051947 -0.054049
v -0.088774 -0.007219 -0.051251
v -0.068660 0.028361 -0.039638
v -0.068660 0.028361 0.039640
v -0.088774 -0.007219 0.051253
v -0.093621 -0.051947 0.054051
v -0.088774 -0.096674 0.051253
v -0.074235 -0.126750 0.042859
v 0.068653 0.028361 -0.039638
v 0.088768 -0.007219 -0.051251
v 0.093614 -0.051947 -0.054049
v 0.088768 -0.096674 -0.051251
v 0.074229 -0.126750 -0.042857
v -0.000003 -0.126750 -0.085715
v -0.000003 -0.096674 -0.102503
v -0.000003 -0.051947 -0.108099
v -0.000003 -0.007219 -0.102503
v -0.000003 0.028361 -0.079277
v -0.000003 0.101467 -0.024473
v -0.021198 0.101467 -0.012236
v -0.021198 0.101467 0.012238
v -0.000003 0.101467 0.024475
v 0.021192 0.101467 0.012238
v 0.021192 0.101467 -0.012236
v 0.026950 0.068354 0.015563
v 0.022135 0.087384 0.012782
v 0.022135 0.087384 -0.012781
v 0.026950 0.068354 -0.015561
v -0.026957 0.068354 0.015563
v -0.022141 0.087384 0.012782
v -0.000003 0.087384 0.025564
v -0.000003 0.068354 0.031124
v -0.000003 0.068354 -0.031122
v -0.000003 0.087384 -0.025562
v -0.022141 0.087384 -0.012781
v -0.026957 0.068354 -0.015561
v -0.000003 0.101467 -0.029689
v -0.025716 0.101467 -0.014844
v -0.025716 0.101467 0.014846
v -0.000003 0.101467 0.029691
v 0.025709 0.101467 0.014846
v 0.025709 0.101467 -0.014844
v -0.000003 0.114222 -0.029689
v -0.025716 0.114222 -0.014844
v -0.025716 0.114222 0.014846
v -0.000003 0.114222 0.029691
v 0.025709 0.114222 0.014846
v 0.025709 0.114222 -0.014844
v -0.000003 0.114222 -0.020657
v -0.017894 0.114222 -0.010328
v -0.017894 0.114222 0.010330
v -0.000003 0.114222 0.020659
v 0.017887 0.114222 0.010330
v 0.017887 0.114222 -0.010328
v -0.000003 0.145713 -0.022881
v -0.019960 0.147318 -0.011440
v -0.019960 0.150527 0.011442
v -0.000003 0.152132 0.022882
v 0.019954 0.150527 0.011442
v 0.019954 0.147318 -0.011440
v -0.000003 0.154535 0.000001
vt 0.282594 0.454472
vt 0.225369 0.528407
vt 0.220376 0.474415
vt 0.464909 0.455398
vt 0.437079 0.367818
vt 0.485806 0.396875
vt 0.175491 0.454472
vt 0.241601 0.392480
vt 0.269102 0.454472
vt 0.437079 0.308885
vt 0.485806 0.279828
vt 0.352119 0.367150
vt 0.278066 0.304546
vt 0.341524 0.279828
vt 0.283401 0.348513
vt 0.589148 0.677547
vt 0.608672 0.674120
vt 0.600286 0.683685
vt 0.587506 0.662456
vt 0.612138 0.670166
vt 0.217929 0.711601
vt 0.002580 0.841041
vt 0.009985 0.705455
vt 0.217822 0.843673
vt 0.008414 0.981624
vt 0.013945 0.676521
vt 0.243784 0.540681
vt 0.214369 0.676366
vt 0.612138 0.705970
vt 0.602110 0.700444
vt 0.615068 0.680748
vt 0.620016 0.658322
vt 0.623520 0.677592
vt 0.631732 0.656218
vt 0.635426 0.676540
vt 0.643447 0.658322
vt 0.646951 0.677592
vt 0.435851 0.542489
vt 0.462707 0.678704
vt 0.592797 0.711066
vt 0.573273 0.714493
vt 0.581659 0.704929
vt 0.615068 0.712977
vt 0.620016 0.735403
vt 0.612138 0.729091
vt 0.623520 0.716133
vt 0.631732 0.737508
vt 0.635426 0.717185
vt 0.643447 0.735403
vt 0.208370 0.676185
vt 0.027681 0.546970
vt 0.233672 0.550828
vt 0.579835 0.688169
vt 0.569807 0.682643
vt 0.586827 0.656218
vt 0.425053 0.845689
vt 0.218581 0.978187
vt 0.437124 0.675061
vt 0.627347 0.540353
vt 0.618582 0.668697
vt 0.594439 0.726157
vt 0.646951 0.716133
vt 0.644350 0.540228
vt 0.639685 0.681111
vt 0.565661 0.680358
vt 0.424293 0.711175
vt 0.640295 0.848322
vt 0.424945 0.977762
vt 0.410593 0.549959
vt 0.250702 0.576986
vt 0.232806 0.615834
vt 0.218760 0.599900
vt 0.380584 0.357222
vt 0.358570 0.320285
vt 0.380584 0.319481
vt 0.455002 0.495460
vt 0.432988 0.532397
vt 0.432988 0.496264
vt 0.209115 0.351054
vt 0.221997 0.312339
vt 0.235883 0.322897
vt 0.270764 0.570555
vt 0.263387 0.593896
vt 0.373846 0.376093
vt 0.358570 0.356418
vt 0.511497 0.484864
vt 0.477625 0.468380
vt 0.500975 0.455398
vt 0.403206 0.384302
vt 0.411410 0.361327
vt 0.259886 0.543668
vt 0.235460 0.551497
vt 0.259476 0.337166
vt 0.226885 0.371447
vt 0.511497 0.543797
vt 0.485829 0.491355
vt 0.455002 0.533201
vt 0.411410 0.315376
vt 0.196570 0.579396
vt 0.175491 0.564188
vt 0.359223 0.481166
vt 0.352119 0.521150
vt 0.352119 0.477315
vt 0.425884 0.517299
vt 0.392553 0.543067
vt 0.392553 0.535366
vt 0.392553 0.463099
vt 0.432988 0.477315
vt 0.425884 0.481166
vt 0.392553 0.455398
vt 0.359223 0.517299
vt 0.432988 0.521150
vt 0.485806 0.323392
vt 0.510549 0.348042
vt 0.490991 0.345990
vt 0.485806 0.372692
vt 0.510549 0.414203
vt 0.490991 0.416255
vt 0.282594 0.542142
vt 0.302274 0.585977
vt 0.282594 0.585977
vt 0.490991 0.279828
vt 0.505364 0.325444
vt 0.350202 0.520225
vt 0.334904 0.476390
vt 0.350202 0.476390
vt 0.490991 0.350094
vt 0.505364 0.370640
vt 0.308749 0.454472
vt 0.326948 0.483057
vt 0.308749 0.467807
vt 0.334904 0.520225
vt 0.282594 0.520225
vt 0.308749 0.528807
vt 0.308749 0.542142
vt 0.290551 0.483057
vt 0.282594 0.476390
vt 0.326948 0.513557
vt 0.290551 0.513557
vt 0.881731 0.933058
vt 0.911894 0.938027
vt 0.883293 0.940652
vt 0.914640 0.904777
vt 0.883117 0.921015
vt 0.881731 0.903953
vt 0.884226 0.963628
vt 0.911894 0.955130
vt 0.912934 0.963656
vt 0.884540 0.955938
vt 0.884030 0.895324
vt 0.915458 0.897069
vt 0.914640 0.920100
vt 0.886802 0.929449
vt 0.864429 0.895324
vt 0.881731 0.903893
vt 0.864429 0.913019
vt 0.881731 0.921031
vt 0.864429 0.929599
vt 0.847127 0.921031
vt 0.847127 0.903893
vt 0.256696 0.518366
vt 0.426557 0.397285
vt 0.194468 0.392480
vt 0.013157 0.538376
vt 0.612138 0.664634
vt 0.030076 0.666555
vt 0.569807 0.718447
vt 0.634460 0.707739
vt 0.632889 0.983909
vt 0.196370 0.339296
vt 0.282594 0.587740
vt 0.352119 0.374485
vt 0.485828 0.537306
vt 0.302274 0.542142
vt 0.510549 0.281880
vt 0.510549 0.348042
vt 0.912934 0.929449
vt 0.915458 0.927714
vn -0.2946 -0.8080 -0.5103
vn 0.5892 -0.8080 -0.0000
vn -0.5892 -0.8080 0.0000
vn 0.2946 -0.8080 -0.5103
vn 0.2946 -0.8080 0.5103
vn -0.2946 -0.8080 0.5103
vn -0.3099 0.7847 0.5368
vn -0.4502 0.4352 0.7797
vn -0.4971 0.1077 0.8610
vn -0.4971 -0.1077 0.8610
vn -0.4353 -0.4921 0.7539
vn 0.3099 0.7847 0.5368
vn 0.4502 0.4352 0.7797
vn 0.4971 0.1077 0.8610
vn 0.4971 -0.1077 0.8610
vn 0.4353 -0.4921 0.7539
vn 0.3099 0.7847 -0.5368
vn 0.4502 0.4352 -0.7797
vn 0.4971 0.1077 -0.8610
vn 0.4971 -0.1077 -0.8610
vn 0.4353 -0.4921 -0.7539
vn -0.6199 0.7847 0.0000
vn -0.9003 0.4352 0.0000
vn -0.9942 0.1077 0.0000
vn -0.9942 -0.1077 0.0000
vn -0.8705 -0.4921 0.0000
vn 0.6199 0.7847 0.0000
vn 0.9003 0.4352 0.0000
vn 0.9942 0.1077 0.0000
vn 0.9942 -0.1077 0.0000
vn 0.8705 -0.4921 -0.0000
vn -0.3099 0.7847 -0.5368
vn -0.4502 0.4352 -0.7797
vn -0.4971 0.1077 -0.8610
vn -0.4971 -0.1077 -0.8610
vn -0.4353 -0.4921 -0.7539
vn -0.9978 -0.0668 -0.0000
vn 0.4989 -0.0668 -0.8641
vn 0.4989 -0.0668 0.8641
vn -0.4989 -0.0668 0.8641
vn -0.4989 -0.0668 -0.8641
vn 0.9978 -0.0668 -0.0000
vn 0.8933 -0.4495 0.0000
vn 0.9694 -0.2453 0.0000
vn -0.4466 -0.4495 -0.7736
vn -0.4847 -0.2453 -0.8396
vn -0.4466 -0.4495 0.7736
vn -0.4847 -0.2453 0.8396
vn 0.4466 -0.4495 0.7736
vn 0.4847 -0.2453 0.8396
vn 0.4466 -0.4495 -0.7736
vn 0.4847 -0.2453 -0.8396
vn -0.8933 -0.4495 0.0000
vn -0.9694 -0.2453 -0.0000
vn 0.0000 1.0000 0.0000
vn 1.0000 0.0000 0.0000
vn -1.0000 0.0000 0.0000
vn 0.5000 0.0000 -0.8660
vn 0.5000 0.0000 0.8660
vn -0.5000 0.0000 0.8660
vn -0.5000 0.0000 -0.8660
vn 0.0000 -1.0000 0.0000
vn -0.9981 0.0623 0.0000
vn 0.4936 0.0509 -0.8682
vn 0.5001 0.0602 0.8639
vn -0.4991 0.0610 0.8644
vn -0.4992 0.0549 -0.8647
vn 0.9983 0.0571 -0.0080
vn -0.1301 -0.9251 0.3567
vn -0.1385 -0.9849 -0.1034
vn 0.2683 -0.9540 0.1338
vn -0.2683 -0.9540 0.1338
vn 0.1385 -0.9849 -0.1034
vn 0.1301 -0.9251 0.3567
vn -0.9983 0.0571 -0.0080
vn 0.4992 0.0549 -0.8647
vn 0.4991 0.0610 0.8644
vn -0.5001 0.0602 0.8639
vn -0.4936 0.0509 -0.8682
vn 0.9981 0.0623 0.0000
s off
f 17/1/1 11/2/1 18/3/1
f 27/4/2 9/5/2 28/6/2
f 18/7/3 12/8/3 33/9/3
f 28/6/4 10/10/4 17/11/4
f 42/12/5 8/13/5 27/14/5
f 42/12/6 12/8/6 7/15/6
f 6/16/7 38/17/7 1/18/7
f 37/19/8 39/20/8 38/17/8
f 36/21/9 40/22/9 39/23/9
f 35/24/10 41/25/10 40/22/10
f 34/26/11 42/27/11 41/28/11
f 1/18/12 23/29/12 2/30/12
f 23/31/13 39/32/13 24/33/13
f 24/33/14 40/34/14 25/35/14
f 25/35/15 41/36/15 26/37/15
f 41/28/16 27/38/16 26/39/16
f 3/40/17 13/41/17 4/42/17
f 32/43/18 14/44/18 13/45/18
f 31/46/19 15/47/19 14/44/19
f 30/48/20 16/49/20 15/47/20
f 16/50/21 28/51/21 17/52/21
f 5/53/22 37/19/22 6/16/22
f 22/54/23 36/55/23 37/19/23
f 36/21/24 20/56/24 35/24/24
f 20/56/25 34/57/25 35/24/25
f 19/58/26 33/59/26 34/60/26
f 2/30/27 32/61/27 3/40/27
f 32/43/28 24/33/28 31/46/28
f 24/33/29 30/48/29 31/46/29
f 25/35/30 29/62/30 30/48/30
f 26/39/31 28/63/31 29/64/31
f 5/53/32 13/41/32 22/54/32
f 13/41/33 21/65/33 22/54/33
f 21/66/34 15/67/34 20/56/34
f 15/67/35 19/68/35 20/56/35
f 16/50/36 18/69/36 19/58/36
f 50/70/37 48/71/37 51/72/37
f 54/73/38 46/74/38 55/75/38
f 59/76/39 43/77/39 44/78/39
f 51/79/40 43/80/40 58/81/40
f 55/82/41 47/83/41 50/70/41
f 59/84/42 45/85/42 54/73/42
f 8/86/43 53/87/43 9/88/43
f 60/89/44 54/73/44 53/90/44
f 11/2/45 56/91/45 49/92/45
f 56/91/46 50/70/46 49/92/46
f 12/8/47 57/93/47 7/15/47
f 52/94/48 58/81/48 57/93/48
f 7/95/49 60/96/49 8/86/49
f 60/96/50 58/97/50 59/76/50
f 9/5/51 56/98/51 10/10/51
f 56/98/52 54/73/52 55/75/52
f 11/2/53 52/99/53 12/100/53
f 52/99/54 50/70/54 51/72/54
f 48/101/55 65/102/55 66/103/55
f 45/104/55 64/105/55 46/106/55
f 43/107/55 62/108/55 44/109/55
f 48/101/55 61/110/55 43/107/55
f 46/106/55 65/102/55 47/111/55
f 45/104/55 62/108/55 63/112/55
f 62/113/56 69/114/56 63/115/56
f 65/116/57 72/117/57 66/118/57
f 63/119/58 70/120/58 64/121/58
f 61/122/59 68/123/59 62/113/59
f 66/124/60 67/125/60 61/126/60
f 64/127/61 71/128/61 65/116/61
f 68/129/62 73/130/62 74/131/62
f 72/132/62 73/130/62 67/125/62
f 70/133/62 77/134/62 71/135/62
f 68/129/62 75/136/62 69/137/62
f 71/135/62 78/138/62 72/132/62
f 69/137/62 76/139/62 70/133/62
f 77/140/63 84/141/63 78/142/63
f 76/143/64 81/144/64 82/145/64
f 74/146/65 79/147/65 80/148/65
f 78/142/66 79/147/66 73/149/66
f 76/143/67 83/150/67 77/151/67
f 75/152/68 80/153/68 81/144/68
f 79/154/69 84/155/69 85/156/69
f 83/157/70 82/158/70 85/156/70
f 81/159/71 80/160/71 85/156/71
f 84/155/72 83/157/72 85/156/72
f 82/158/73 81/159/73 85/156/73
f 80/160/74 79/154/74 85/156/74
f 5/53/55 6/16/55 1/18/55
f 17/1/1 10/161/1 11/2/1
f 27/4/2 8/162/2 9/5/2
f 18/7/3 11/163/3 12/8/3
f 28/6/4 9/5/4 10/10/4
f 42/12/5 7/15/5 8/13/5
f 42/12/6 33/9/6 12/8/6
f 6/16/7 37/19/7 38/17/7
f 37/19/8 36/55/8 39/20/8
f 36/21/9 35/24/9 40/22/9
f 35/24/10 34/57/10 41/25/10
f 34/26/11 33/164/11 42/27/11
f 1/18/12 38/17/12 23/29/12
f 23/31/13 38/165/13 39/32/13
f 24/33/14 39/32/14 40/34/14
f 25/35/15 40/34/15 41/36/15
f 41/28/16 42/27/16 27/38/16
f 3/40/17 32/61/17 13/41/17
f 32/43/18 31/46/18 14/44/18
f 31/46/19 30/48/19 15/47/19
f 30/48/20 29/62/20 16/49/20
f 16/50/21 29/166/21 28/51/21
f 5/53/22 22/54/22 37/19/22
f 22/54/23 21/65/23 36/55/23
f 36/21/24 21/66/24 20/56/24
f 20/56/25 19/68/25 34/57/25
f 19/58/26 18/69/26 33/59/26
f 2/30/27 23/29/27 32/61/27
f 32/43/28 23/31/28 24/33/28
f 24/33/29 25/35/29 30/48/29
f 25/35/30 26/37/30 29/62/30
f 26/39/31 27/38/31 28/63/31
f 5/53/32 4/42/32 13/41/32
f 13/41/33 14/167/33 21/65/33
f 21/66/34 14/168/34 15/67/34
f 15/67/35 16/169/35 19/68/35
f 16/50/36 17/52/36 18/69/36
f 50/70/37 47/83/37 48/71/37
f 54/73/38 45/85/38 46/74/38
f 59/76/39 58/97/39 43/77/39
f 51/79/40 48/170/40 43/80/40
f 55/82/41 46/171/41 47/83/41
f 59/84/42 44/172/42 45/85/42
f 8/86/43 60/96/43 53/87/43
f 60/89/44 59/84/44 54/73/44
f 11/2/45 10/161/45 56/91/45
f 56/91/46 55/82/46 50/70/46
f 12/8/47 52/94/47 57/93/47
f 52/94/48 51/79/48 58/81/48
f 7/95/49 57/173/49 60/96/49
f 60/96/50 57/173/50 58/97/50
f 9/5/51 53/90/51 56/98/51
f 56/98/52 53/90/52 54/73/52
f 11/2/53 49/92/53 52/99/53
f 52/99/54 49/92/54 50/70/54
f 48/101/55 47/111/55 65/102/55
f 45/104/55 63/112/55 64/105/55
f 43/107/55 61/110/55 62/108/55
f 48/101/55 66/103/55 61/110/55
f 46/106/55 64/105/55 65/102/55
f 45/104/55 44/109/55 62/108/55
f 62/113/56 68/123/56 69/114/56
f 65/116/57 71/128/57 72/117/57
f 63/119/58 69/174/58 70/120/58
f 61/122/59 67/175/59 68/123/59
f 66/124/60 72/132/60 67/125/60
f 64/127/61 70/176/61 71/128/61
f 68/129/62 67/125/62 73/130/62
f 72/132/62 78/138/62 73/130/62
f 70/133/62 76/139/62 77/134/62
f 68/129/62 74/131/62 75/136/62
f 71/135/62 77/134/62 78/138/62
f 69/137/62 75/136/62 76/139/62
f 77/140/75 83/177/75 84/141/75
f 76/143/76 75/152/76 81/144/76
f 74/146/77 73/149/77 79/147/77
f 78/142/78 84/141/78 79/147/78
f 76/143/79 82/145/79 83/150/79
f 75/152/80 74/178/80 80/153/80
f 1/18/55 2/30/55 3/40/55
f 3/40/55 4/42/55 1/18/55
f 4/42/55 5/53/55 1/18/55
