# Blender v2.82 (sub 7) OBJ File: 'Projet_Integral.blend'
# www.blender.org
v -0.203343 -0.451409 -0.014052
v -0.316149 -0.313559 0.365717
v -0.300763 -0.436752 0.565747
v -0.321273 -0.256923 0.738486
v -0.378678 0.033149 -0.632835
v 0.429037 -0.402514 -0.016782
v 0.372426 -0.425468 -0.240099
v 0.444355 0.280903 0.290383
v 0.168708 -0.168197 0.504512
v -0.041102 -0.436912 0.750292
v 0.187889 0.655609 0.115544
v -0.321675 0.137788 0.655377
v -0.259402 0.020492 0.323284
v -0.404532 0.226158 0.176785
v -0.431156 0.502310 0.287666
v -0.528841 0.321090 -0.043927
v -0.399646 -0.260189 -0.010514
v -0.442196 0.014105 -0.025818
v -0.479805 0.372865 -0.355169
v -0.299780 -0.176707 -0.292035
v -0.345780 0.050651 -0.346405
v -0.411565 0.238953 -0.489137
v -0.130896 0.419281 -0.651344
v -0.310963 -0.087650 -0.558969
v -0.283557 -0.053645 -0.784787
v -0.230480 0.126555 -0.844239
v -0.137492 0.464690 -0.761121
v -0.176672 0.240704 -0.931824
v -0.148860 0.417713 -0.898770
v -0.016413 0.695601 -0.958485
v -0.038102 0.459047 -1.062889
v 0.034046 -0.235178 -0.564758
v -0.082414 0.009675 -0.972335
v 0.091000 0.071094 -1.026059
v 0.128217 0.254624 -1.071800
v 0.207517 0.023910 -0.908296
v 0.243248 0.246463 -0.886308
v 0.292155 -0.111310 -0.606676
v 0.235827 0.535064 -0.868829
v 0.292738 0.188398 -0.615662
v 0.221466 0.290011 -0.621700
v 0.382350 -0.209295 -0.416330
v 0.258556 0.408740 -0.653587
v 0.253989 0.118572 -0.485957
v 0.314754 0.231408 -0.539074
v 0.439236 0.349137 -0.445423
v 0.186877 0.467842 -0.598835
v 0.490939 -0.274917 -0.240352
v 0.508583 0.113525 -0.205056
v 0.549912 0.386691 -0.236961
v 0.405064 0.123953 0.048163
v 0.466992 0.257169 0.065648
v 0.513336 0.527342 -0.133532
v 0.346741 -0.181990 0.363165
v 0.344868 0.007505 0.329556
v 0.348559 0.535556 0.399327
v 0.135920 -0.153866 0.566998
v 0.144247 -0.140244 0.555157
v 0.080552 -0.255972 0.509270
v 0.234184 0.520202 0.534186
v 0.084848 -0.200578 0.595143
v 0.120251 -0.107595 0.659513
v 0.039529 0.489954 0.725353
v 0.052966 -0.001680 0.808698
v -0.082610 -0.312686 0.857718
v -0.313611 0.353112 0.653756
v -0.294967 0.522040 0.587363
v -0.384198 0.564491 0.374285
v 0.139858 -0.351997 -0.420106
v 0.049818 -0.388524 -0.256133
v -0.029155 -0.546310 -0.040472
v 0.326456 -0.518301 -0.048302
v -0.182215 -0.434697 0.252911
v 0.128313 -0.598238 0.054112
v -0.064954 -0.452075 0.258012
v 0.040644 -0.537454 0.375269
v 0.142870 -0.304990 0.319766
v -0.055959 -0.551973 0.625703
v 0.132927 -0.319224 0.473070
v 0.025854 0.806638 -0.871489
v -0.242305 0.733800 -0.593299
v -0.031027 0.888358 -0.668525
v -0.353269 0.557641 -0.452390
v 0.119630 0.853149 -0.414141
v 0.253774 0.792173 -0.266316
v 0.095397 0.826070 -0.283630
v 0.122498 0.799515 -0.103244
v -0.111202 0.678760 0.021903
v -0.040346 0.572435 0.177308
v -0.282972 0.614060 0.215805
vt 0.189338 0.741978
vt 0.142278 0.797146
vt 0.133334 0.750155
vt 0.117388 0.779918
vt 0.286109 0.812357
vt 0.308327 0.795910
vt 0.299075 0.824922
vt 0.290605 0.775401
vt 0.282778 0.755774
vt 0.316794 0.760944
vt 0.259509 0.747167
vt 0.266788 0.720623
vt 0.231849 0.716693
vt 0.124880 0.685241
vt 0.108708 0.704786
vt 0.106853 0.650255
vt 0.418721 0.585694
vt 0.352586 0.612406
vt 0.373684 0.562164
vt 0.292311 0.604592
vt 0.288668 0.596697
vt 0.290668 0.594786
vt 0.190102 0.741978
vt 0.190102 0.753510
vt 0.189338 0.744306
vt 0.190897 0.633723
vt 0.150014 0.659399
vt 0.186564 0.610002
vt 0.270327 0.559208
vt 0.315274 0.546037
vt 0.332210 0.562445
vt 0.107817 0.913321
vt 0.121869 0.937223
vt 0.076601 0.927746
vt 0.079708 0.943277
vt 0.118401 0.963137
vt 0.075362 0.964907
vt 0.046254 0.964907
vt 0.441933 0.947046
vt 0.403596 0.917854
vt 0.441632 0.910119
vt 0.199914 0.766670
vt 0.214241 0.717585
vt 0.190897 0.738258
vt 0.117388 0.866090
vt 0.135761 0.876001
vt 0.127567 0.882136
vt 0.446749 0.568553
vt 0.465124 0.546037
vt 0.465124 0.584853
vt 0.398271 0.559715
vt 0.192201 0.939059
vt 0.190897 0.916329
vt 0.213115 0.953625
vt 0.135761 0.936652
vt 0.124134 0.927879
vt 0.135761 0.882136
vt 0.416337 0.629010
vt 0.427654 0.623591
vt 0.248926 0.711538
vt 0.210186 0.716693
vt 0.229424 0.675166
vt 0.201048 0.910204
vt 0.242375 0.903959
vt 0.268730 0.842093
vt 0.295537 0.860128
vt 0.287250 0.902049
vt 0.252452 0.885354
vt 0.401027 0.808160
vt 0.426263 0.782189
vt 0.434362 0.797956
vt 0.373963 0.866667
vt 0.361036 0.891420
vt 0.339029 0.846078
vt 0.322245 0.686136
vt 0.248675 0.673954
vt 0.423231 0.820859
vt 0.451772 0.808160
vt 0.451772 0.864469
vt 0.381991 0.891388
vt 0.105462 0.830457
vt 0.117388 0.845428
vt 0.104931 0.847556
vt 0.088147 0.882235
vt 0.395261 0.955283
vt 0.369389 0.945487
vt 0.395261 0.898160
vt 0.246189 0.759278
vt 0.129629 0.712423
vt 0.245894 0.774204
vt 0.174090 0.704943
vt 0.313803 0.606871
vt 0.305455 0.598734
vt 0.292444 0.633433
vt 0.265845 0.636419
vt 0.127729 0.633422
vt 0.355666 0.734614
vt 0.380858 0.733133
vt 0.390654 0.754871
vt 0.100332 0.613974
vt 0.176589 0.573802
vt 0.284413 0.582276
vt 0.065787 0.741978
vt 0.047497 0.712850
vt 0.046254 0.682376
vt 0.190897 0.701007
vt 0.191799 0.625441
vt 0.226522 0.646239
vt 0.403808 0.872528
vt 0.441933 0.876226
vt 0.399538 0.895202
vt 0.189338 0.790025
vt 0.157981 0.886423
vt 0.189338 0.896034
vt 0.174299 0.941277
vt 0.242375 0.961139
vt 0.251228 0.817445
vt 0.212428 0.868460
vt 0.224891 0.827619
vt 0.399538 0.768318
vt 0.074040 0.832938
vt 0.399538 0.716693
vt 0.046254 0.820559
vt 0.091290 0.799364
vt 0.057259 0.855623
vt 0.352707 0.830607
vt 0.317153 0.876465
vt 0.331423 0.898160
vt 0.303550 0.716693
vt 0.190897 0.546037
vt 0.130634 0.552168
vt 0.125926 0.567576
vt 0.258474 0.949464
vt 0.242375 0.914440
vt 0.258474 0.903959
vt 0.317153 0.903959
vt 0.349615 0.801454
vt 0.427654 0.646259
vt 0.458717 0.622706
vt 0.458717 0.678022
vt 0.424381 0.872528
vt 0.399538 0.872284
vt 0.326841 0.748968
vt 0.048357 0.784791
vt 0.074510 0.760745
vt 0.093082 0.752432
vt 0.399538 0.861527
vt 0.317153 0.956403
vt 0.321294 0.927435
vt 0.368176 0.956403
vt 0.364688 0.904292
vt 0.427654 0.546037
vt 0.448437 0.549891
vt 0.436226 0.622706
vt 0.427654 0.572025
vt 0.133250 0.823303
vt 0.051414 0.911973
vt 0.456623 0.872528
vt 0.456623 0.940380
vt 0.441933 0.929633
vt 0.368176 0.908148
vt 0.210857 0.798970
vt 0.102224 0.722258
vt 0.117388 0.741978
vt 0.372186 0.678495
vt 0.356738 0.640890
vt 0.436939 0.773214
vt 0.436939 0.716693
vt 0.166581 0.848109
vt 0.189338 0.834713
vt 0.164586 0.834713
vt 0.136215 0.861820
vt 0.137187 0.915619
vt 0.328332 0.898160
vt 0.089631 0.882235
vt 0.135761 0.834713
vt 0.056558 0.614862
vt 0.088876 0.591256
vt 0.458275 0.808160
vt 0.458275 0.864836
vt 0.451772 0.842759
vt 0.099715 0.587151
vt 0.311566 0.626089
vt 0.339418 0.683897
vt 0.345189 0.613892
vt 0.352586 0.658968
vt 0.348370 0.577227
vt 0.195153 0.601680
vt 0.201403 0.565927
vt 0.317153 0.742596
vt 0.297779 0.724205
vt 0.392204 0.832689
vt 0.389561 0.800880
vt 0.436939 0.767510
vt 0.460708 0.716693
vt 0.460708 0.778053
vt 0.369813 0.711744
vt 0.352586 0.711744
vt 0.353487 0.678495
vn -0.9999 -0.0038 -0.0132
vn -0.9931 -0.1173 0.0042
vn -0.8058 -0.5634 -0.1826
vn -0.8299 0.0615 -0.5546
vn -0.6525 -0.1355 -0.7456
vn -0.8330 0.2253 -0.5054
vn -0.8256 0.2894 -0.4843
vn -0.3688 0.9100 0.1894
vn 0.7388 0.4944 -0.4580
vn 0.8690 -0.1125 0.4818
vn -0.3327 0.7262 0.6016
vn 0.2050 0.9377 0.2806
vn 0.7743 -0.2456 0.5832
vn -0.4656 -0.8802 0.0919
vn -0.1526 -0.9475 0.2808
vn -0.4248 -0.8767 0.2258
vn -0.4503 -0.8644 -0.2238
vn -0.3897 -0.9080 -0.1537
vn -0.6451 0.6081 -0.4627
vn -0.6273 0.6455 -0.4357
vn -0.9169 0.1478 -0.3707
vn 0.8824 -0.4703 0.0104
vn 0.7074 -0.2114 -0.6745
vn 0.7061 0.5294 -0.4703
vn -0.8712 0.2599 0.4166
vn -0.6158 -0.7877 -0.0190
vn -0.1307 -0.9575 -0.2570
vn 0.5191 0.8275 -0.2137
vn 0.9693 -0.1217 0.2135
vn -0.9551 -0.1850 0.2313
vn -0.8966 -0.4238 0.1289
vn -0.9138 -0.1625 -0.3723
vn 0.9562 -0.2658 0.1225
vn -0.0795 -0.8896 -0.4497
vn 0.9256 -0.0046 0.3786
vn -0.4509 -0.8083 -0.3786
vn 0.7593 -0.6382 -0.1269
vn 0.7306 0.4838 -0.4817
vn -0.6934 -0.7137 0.0995
vn -0.3081 0.1957 0.9310
vn -0.9062 0.4174 -0.0676
vn 0.1960 0.9740 0.1139
vn -0.9249 0.3707 -0.0851
vn 0.5435 0.7355 0.4044
vn 0.7531 0.2840 0.5934
vn 0.6222 0.1427 0.7698
vn -0.1262 0.7910 0.5987
vn 0.1509 -0.8570 -0.4927
vn 0.0505 0.9772 0.2061
vn 0.6791 -0.6041 0.4171
vn -0.4937 0.8182 0.2946
vn -0.5770 0.7000 0.4207
vn 0.6093 0.5029 -0.6131
vn 0.9588 0.0427 0.2810
vn 0.9311 0.2286 0.2844
vn 0.9900 -0.0893 0.1092
vn 0.8285 -0.4319 0.3565
vn -0.4523 -0.6650 0.5943
vn -0.4349 -0.6351 0.6384
vn -0.4539 -0.6437 0.6162
vn -0.9642 0.1348 -0.2284
vn -0.8299 -0.5565 0.0409
vn -0.9131 0.1793 0.3663
vn -0.9834 0.0382 0.1773
vn -0.9785 -0.2045 -0.0272
vn -0.9623 -0.2413 0.1253
vn -0.9115 -0.2753 -0.3055
vn -0.9016 -0.3806 -0.2054
vn -0.9193 -0.3846 -0.0838
vn -0.9166 -0.2584 -0.3051
vn 0.9957 0.0309 -0.0870
vn 0.8191 0.5730 -0.0269
vn 0.6127 -0.3059 -0.7287
vn 0.8497 0.0536 -0.5246
vn 0.8452 -0.0836 -0.5278
vn -0.0966 -0.9589 -0.2666
vn 0.0735 -0.8175 -0.5712
vn 0.0393 -0.8232 -0.5664
vn 0.9407 -0.3332 0.0633
vn 0.8915 -0.4322 0.1354
vn 0.9795 0.0199 0.2006
vn 0.9722 0.0502 0.2287
vn 0.9706 -0.0651 0.2316
vn -0.2536 0.1549 0.9548
vn -0.3221 0.3769 0.8685
vn -0.4432 -0.6383 -0.6293
vn -0.6377 -0.6469 -0.4181
vn -0.3815 -0.8354 -0.3956
vn -0.3770 -0.7209 -0.5816
vn -0.3816 -0.8815 -0.2781
vn -0.3891 -0.9028 -0.1832
vn -0.1677 -0.8655 -0.4720
vn 0.4521 0.4026 -0.7959
vn 0.4892 0.3142 -0.8136
vn 0.5205 0.3950 -0.7570
vn 0.7785 -0.6131 -0.1343
vn 0.8524 0.0088 -0.5227
vn 0.7342 0.1467 -0.6628
vn 0.8815 -0.1842 -0.4348
vn 0.4788 -0.3641 -0.7988
vn 0.7515 -0.3496 -0.5595
vn 0.5975 -0.5816 -0.5520
vn -0.7654 -0.5726 -0.2938
vn -0.6527 -0.7566 0.0375
vn -0.3720 0.0209 0.9280
vn -0.3694 0.2997 0.8796
vn -0.7700 0.2103 -0.6024
vn -0.5825 0.1975 -0.7884
vn -0.7022 -0.1192 -0.7020
vn -0.9442 -0.3205 -0.0758
vn -0.8506 -0.0034 -0.5258
vn -0.0869 0.9785 0.1869
vn 0.1793 0.9561 0.2317
vn 0.7910 0.6113 -0.0245
vn 0.8252 0.3547 -0.4396
vn 0.7303 0.6200 0.2868
vn 0.7569 0.3852 -0.5280
vn 0.8357 0.4779 0.2705
vn -0.8796 -0.1106 0.4626
vn -0.9520 0.1920 0.2385
vn -0.8871 -0.2267 0.4021
vn -0.8861 -0.2437 0.3942
vn -0.8487 -0.2787 0.4495
vn -0.8418 0.2121 -0.4964
vn -0.6538 0.5587 -0.5103
vn -0.9969 0.0297 0.0722
vn -0.9873 0.1419 0.0708
vn 0.9128 0.2981 -0.2791
vn 0.9616 -0.0101 -0.2744
vn 0.9691 -0.1352 -0.2062
vn 0.9571 0.0068 0.2896
vn 0.5559 0.7610 0.3344
vn 0.4444 0.8872 0.1237
vn -0.8341 0.5502 -0.0399
vn -0.6110 0.7564 -0.2334
vn -0.6672 0.6426 -0.3767
vn -0.6467 0.7409 -0.1813
vn -0.6567 0.7399 0.1462
vn -0.5272 0.8481 0.0525
vn 0.5053 -0.6130 0.6073
vn 0.8117 -0.2287 0.5374
vn 0.4826 -0.8270 0.2883
vn 0.8273 -0.4584 0.3247
vn 0.8273 -0.4804 0.2913
vn 0.9171 -0.3979 0.0225
vn 0.8329 -0.2310 0.5030
vn 0.7621 0.0097 0.6474
vn 0.6826 0.1402 0.7172
vn 0.7822 0.0548 0.6206
vn 0.7760 -0.5287 0.3439
vn 0.8005 -0.2695 0.5354
vn 0.8412 -0.1825 0.5090
vn -0.3088 0.0406 -0.9503
vn -0.4076 -0.1422 -0.9020
vn -0.3901 -0.2791 -0.8774
vn -0.1154 0.8137 0.5697
vn 0.2218 0.8489 0.4797
vn 0.6386 -0.5037 -0.5819
vn 0.1403 -0.8882 -0.4375
vn 0.4249 -0.7070 -0.5653
vn 0.3634 -0.5986 -0.7138
vn 0.2116 -0.6789 -0.7031
vn 0.2861 -0.7831 -0.5522
vn -0.2457 0.9140 0.3228
vn -0.1037 0.9662 0.2359
vn 0.1710 0.9852 0.0126
vn -0.0060 0.9707 0.2402
vn 0.3546 -0.7733 0.5256
vn 0.3121 -0.2639 0.9127
vn 0.6343 -0.6114 0.4731
vn 0.5231 -0.8511 -0.0451
vn 0.5799 -0.2955 0.7592
vn 0.9075 -0.2936 0.3005
vn 0.8059 -0.2464 0.5384
vn 0.9033 -0.3996 0.1560
s off
f 12/1/1 2/2/1 4/3/1
f 2/2/2 3/4/2 4/3/2
f 5/5/3 25/6/3 24/7/3
f 26/8/4 25/6/4 5/5/4
f 28/9/5 33/10/5 25/6/5
f 29/11/6 31/12/6 28/9/6
f 29/11/7 30/13/7 31/12/7
f 87/14/8 86/15/8 88/16/8
f 46/17/9 85/18/9 53/19/9
f 9/20/10 58/21/10 57/22/10
f 58/23/11 61/24/11 57/25/11
f 56/26/12 11/27/12 60/28/12
f 64/29/13 65/30/13 10/31/13
f 1/32/14 71/33/14 73/34/14
f 71/33/15 75/35/15 73/34/15
f 71/33/16 74/36/16 75/35/16
f 75/35/17 76/37/17 78/38/17
f 73/39/18 78/40/18 3/41/18
f 30/13/19 81/42/19 80/43/19
f 81/42/20 82/44/20 80/43/20
f 26/8/21 28/9/21 25/6/21
f 44/45/22 40/46/22 45/47/22
f 45/48/23 43/49/23 46/50/23
f 50/51/24 46/17/24 53/19/24
f 67/52/25 68/53/25 66/54/25
f 75/35/26 74/36/26 76/37/26
f 73/55/27 75/56/27 78/57/27
f 47/58/28 46/17/28 43/59/28
f 49/60/29 50/61/29 52/62/29
f 66/54/30 15/63/30 14/64/30
f 24/7/31 21/65/31 5/5/31
f 20/66/32 17/67/32 18/68/32
f 37/69/33 43/70/33 41/71/33
f 7/72/34 72/73/34 70/74/34
f 6/75/35 49/60/35 51/76/35
f 32/77/36 70/78/36 20/79/36
f 6/80/37 72/73/37 7/72/37
f 41/81/38 45/82/38 40/83/38
f 17/84/39 1/32/39 73/34/39
f 12/85/40 4/86/40 64/87/40
f 30/13/41 29/11/41 27/88/41
f 86/15/42 87/14/42 85/89/42
f 28/9/43 26/8/43 23/90/43
f 85/89/44 87/14/44 53/91/44
f 79/92/45 59/93/45 10/31/45
f 54/94/46 55/95/46 9/20/46
f 11/27/47 88/16/47 89/96/47
f 33/97/48 34/98/48 36/99/48
f 60/28/49 90/100/49 63/101/49
f 57/22/50 62/102/50 59/93/50
f 82/103/51 81/104/51 86/15/51
f 81/104/52 83/105/52 86/15/52
f 47/58/53 85/18/53 46/17/53
f 50/61/54 53/106/54 52/62/54
f 53/106/55 56/107/55 8/108/55
f 8/108/56 52/62/56 53/106/56
f 52/62/57 51/76/57 49/60/57
f 65/109/58 4/110/58 10/111/58
f 10/111/59 4/110/59 78/40/59
f 3/41/60 78/40/60 4/110/60
f 13/112/61 2/2/61 12/1/61
f 14/113/62 13/114/62 12/115/62
f 66/54/63 68/53/63 15/63/63
f 12/116/64 66/54/64 14/64/64
f 24/7/65 20/66/65 21/65/65
f 21/65/66 22/117/66 5/5/66
f 18/68/67 16/118/67 21/65/67
f 16/118/68 19/119/68 21/65/68
f 19/119/69 22/117/69 21/65/69
f 21/65/70 20/66/70 18/68/70
f 37/69/71 39/120/71 43/70/71
f 40/83/72 37/121/72 41/81/72
f 36/99/73 34/98/73 35/122/73
f 35/123/74 39/124/74 37/121/74
f 36/125/75 35/123/75 37/121/75
f 7/72/76 70/74/76 69/126/76
f 71/127/77 70/74/77 74/128/77
f 72/73/78 74/128/78 70/74/78
f 8/108/79 55/95/79 51/76/79
f 52/62/80 8/108/80 51/76/80
f 54/94/81 6/75/81 51/76/81
f 55/95/82 54/94/82 51/76/82
f 48/129/83 49/60/83 6/75/83
f 64/130/84 63/101/84 66/131/84
f 63/101/85 67/132/85 66/131/85
f 70/133/86 71/134/86 1/135/86
f 1/136/87 17/67/87 20/66/87
f 32/137/88 69/126/88 70/74/88
f 70/138/89 1/139/89 20/140/89
f 20/79/90 24/141/90 32/77/90
f 24/141/91 25/142/91 32/77/91
f 32/137/92 25/143/92 33/97/92
f 39/124/93 35/123/93 31/144/93
f 31/144/94 30/145/94 39/124/94
f 30/145/95 80/146/95 39/124/95
f 48/147/96 6/80/96 7/72/96
f 48/148/97 42/149/97 49/150/97
f 42/149/98 44/151/98 49/150/98
f 46/17/99 50/51/99 49/152/99
f 41/153/100 43/49/100 45/48/100
f 46/50/101 49/154/101 45/48/101
f 49/154/102 44/155/102 45/48/102
f 3/4/103 2/2/103 73/156/103
f 2/157/104 17/84/104 73/34/104
f 64/158/105 66/159/105 12/160/105
f 65/161/106 64/87/106 4/86/106
f 19/119/107 83/162/107 22/117/107
f 83/162/108 23/90/108 22/117/108
f 83/162/109 81/42/109 23/90/109
f 23/90/110 81/42/110 27/88/110
f 81/42/111 30/13/111 27/88/111
f 82/103/112 86/15/112 84/163/112
f 85/89/113 84/163/113 86/15/113
f 80/146/114 82/164/114 39/124/114
f 82/165/115 84/166/115 47/58/115
f 39/120/116 47/167/116 43/70/116
f 84/166/117 85/18/117 47/58/117
f 82/168/118 47/167/118 39/120/118
f 18/169/119 17/170/119 13/114/119
f 17/171/120 2/2/120 13/112/120
f 16/172/121 18/169/121 14/113/121
f 14/113/122 15/173/122 16/172/122
f 18/169/123 13/114/123 14/113/123
f 26/8/124 5/5/124 22/117/124
f 22/117/125 23/90/125 26/8/125
f 23/90/126 27/88/126 29/11/126
f 28/9/127 23/90/127 29/11/127
f 44/151/128 42/149/128 38/174/128
f 38/175/129 36/125/129 40/83/129
f 40/83/130 36/125/130 37/121/130
f 40/46/131 44/45/131 38/176/131
f 87/14/132 11/27/132 53/91/132
f 11/27/133 56/26/133 53/91/133
f 83/162/134 19/119/134 16/118/134
f 16/177/135 15/178/135 88/16/135
f 88/179/136 15/180/136 90/181/136
f 15/178/137 68/182/137 90/100/137
f 83/105/138 16/177/138 88/16/138
f 86/15/139 83/105/139 88/16/139
f 6/75/140 77/183/140 72/184/140
f 72/184/141 77/183/141 76/185/141
f 76/185/142 74/186/142 72/184/142
f 10/31/143 78/187/143 79/92/143
f 78/187/144 76/185/144 79/92/144
f 77/183/145 79/92/145 76/185/145
f 55/95/146 8/108/146 64/29/146
f 8/108/147 56/107/147 60/188/147
f 60/188/148 63/189/148 64/29/148
f 60/188/149 64/29/149 8/108/149
f 62/102/150 58/21/150 55/95/150
f 58/21/151 9/20/151 55/95/151
f 64/29/152 62/102/152 55/95/152
f 33/10/153 28/9/153 34/190/153
f 34/190/154 28/9/154 35/191/154
f 31/12/155 35/191/155 28/9/155
f 11/27/156 87/14/156 88/16/156
f 89/96/157 88/16/157 90/100/157
f 42/192/158 48/147/158 7/72/158
f 36/99/159 38/193/159 33/97/159
f 38/193/160 42/192/160 69/126/160
f 42/192/161 7/72/161 69/126/161
f 69/126/162 32/137/162 38/193/162
f 38/193/163 32/137/163 33/97/163
f 60/28/164 11/27/164 89/96/164
f 90/100/165 68/182/165 67/132/165
f 60/28/166 89/96/166 90/100/166
f 90/100/167 67/132/167 63/101/167
f 77/194/168 6/195/168 54/196/168
f 59/93/169 79/92/169 9/20/169
f 57/22/170 59/93/170 9/20/170
f 79/197/171 77/198/171 54/199/171
f 54/94/172 9/20/172 79/92/172
f 57/22/173 58/21/173 62/102/173
f 64/29/174 10/31/174 62/102/174
f 10/31/175 59/93/175 62/102/175
