# Blender v2.82 (sub 7) OBJ File: 'Projet_Integral.blend'
# www.blender.org
v 0.060605 0.383063 0.071544
v 0.060605 0.324549 0.354369
v 0.060605 -0.182675 0.346782
v 0.060605 -0.292315 0.307458
v 0.060605 -0.405615 0.236397
v 0.060605 -0.522573 0.133600
v 0.060605 -0.076693 0.354369
v 0.060605 0.329953 0.252733
v 0.060605 0.349420 0.158439
v 0.060605 -0.643083 0.000000
v 0.060605 0.383063 -0.071544
v 0.060605 0.324549 -0.354369
v 0.060605 -0.182675 -0.346782
v 0.060605 -0.292315 -0.307458
v 0.060605 -0.405615 -0.236397
v 0.060605 -0.522573 -0.133600
v 0.060605 -0.076693 -0.354369
v 0.060605 0.329953 -0.252733
v 0.060605 0.349420 -0.158439
v 0.060605 0.321734 0.061261
v 0.060605 0.271630 0.303434
v 0.060605 -0.162688 0.296938
v 0.060605 -0.256570 0.263266
v 0.060605 -0.353585 0.202419
v 0.060605 -0.453732 0.114397
v 0.060605 -0.071940 0.303434
v 0.060605 0.276257 0.216407
v 0.060605 0.292926 0.135666
v 0.060605 -0.556921 0.000000
v 0.060605 0.321734 -0.061261
v 0.060605 0.271630 -0.303434
v 0.060605 -0.162688 -0.296937
v 0.060605 -0.256570 -0.263266
v 0.060605 -0.353585 -0.202419
v 0.060605 -0.453732 -0.114397
v 0.060605 -0.071940 -0.303434
v 0.060605 0.276257 -0.216407
v 0.060605 0.292926 -0.135666
v 0.059312 0.265560 0.000000
v 0.052633 0.271630 0.303434
v 0.052633 -0.162688 0.296938
v 0.052633 -0.256570 0.263266
v 0.052633 -0.353585 0.202419
v 0.052633 -0.453732 0.114397
v 0.052633 -0.071940 0.303434
v 0.052633 0.276257 0.216407
v 0.052633 0.292926 0.135666
v 0.052633 -0.556921 0.000000
v 0.052633 0.271630 -0.303434
v 0.052633 -0.162688 -0.296937
v 0.052633 -0.256570 -0.263266
v 0.052633 -0.353585 -0.202419
v 0.052633 -0.453732 -0.114397
v 0.052633 -0.071940 -0.303434
v 0.052633 0.276257 -0.216407
v 0.052633 0.292926 -0.135666
v 0.052633 -0.560784 0.061261
v 0.052633 -0.560784 -0.061261
v 0.052633 0.321734 0.061261
v 0.052633 0.271630 0.303434
v 0.052633 -0.162688 0.296938
v 0.052633 -0.256570 0.263266
v 0.052633 -0.353585 0.202419
v 0.052633 -0.453732 0.114397
v 0.052633 -0.071940 0.303434
v 0.052633 0.276257 0.216407
v 0.052633 0.292926 0.135666
v 0.052633 -0.556921 0.000000
v 0.052633 0.321734 -0.061261
v 0.052633 0.271630 -0.303434
v 0.052633 -0.162688 -0.296937
v 0.052633 -0.256570 -0.263266
v 0.052633 -0.353585 -0.202419
v 0.052633 -0.453732 -0.114397
v 0.052633 -0.071940 -0.303434
v 0.052633 0.276257 -0.216407
v 0.052633 0.292926 -0.135666
v 0.052633 -0.560784 0.061261
v 0.052633 -0.560784 -0.061261
v 0.044163 0.321734 0.061261
v 0.044163 0.271630 0.303434
v 0.044163 -0.162688 0.296938
v 0.044163 -0.256570 0.263266
v 0.044163 -0.353585 0.202419
v 0.044163 -0.453732 0.114397
v 0.044163 -0.071940 0.303434
v 0.044163 0.276257 0.216407
v 0.044163 0.292926 0.135666
v 0.044163 -0.556921 0.000000
v 0.044163 0.321734 -0.061261
v 0.044163 0.271630 -0.303434
v 0.044163 -0.162688 -0.296937
v 0.044163 -0.256570 -0.263266
v 0.044163 -0.353585 -0.202419
v 0.044163 -0.453732 -0.114397
v 0.044163 -0.071940 -0.303434
v 0.044163 0.276257 -0.216407
v 0.044163 0.292926 -0.135666
v 0.044163 -0.560784 0.061261
v 0.044163 -0.560784 -0.061261
v 0.044163 -0.092877 0.000000
v 0.021338 0.052234 0.000000
v 0.021338 0.349420 -0.158439
v 0.021338 0.329953 -0.252733
v 0.021338 -0.076693 -0.354369
v 0.021338 -0.522573 -0.133600
v 0.021338 -0.405615 -0.236397
v 0.021338 -0.292315 -0.307458
v 0.021338 -0.182675 -0.346782
v 0.021338 0.324549 -0.354369
v 0.021338 0.383063 -0.071544
v 0.021338 -0.643083 0.000000
v 0.021338 0.349420 0.158439
v 0.021338 0.329953 0.252733
v 0.021338 -0.076693 0.354369
v 0.021338 -0.522573 0.133600
v 0.021338 -0.405615 0.236397
v 0.021338 -0.292315 0.307458
v 0.021338 -0.182675 0.346782
v 0.021338 0.324549 0.354369
v 0.021338 0.383063 0.071544
v 0.021338 -0.052234 -0.092264
v 0.021338 -0.052234 0.000000
v 0.021338 0.052234 -0.092264
v 0.021338 -0.052234 0.092264
v 0.021338 0.052234 0.092264
v 0.021338 0.000000 -0.092264
v 0.021338 0.000000 0.092264
v -0.034063 0.000000 -0.092264
v -0.014976 0.052234 -0.092264
v -0.034063 0.000000 0.092264
v -0.014976 0.052234 0.092264
v -0.014976 0.052234 0.000000
v -0.014976 -0.052234 0.000000
v -0.014976 -0.052234 -0.092264
v -0.014976 -0.052234 0.092264
v 0.052633 0.321734 0.061261
v 0.052633 0.321734 -0.061261
v 0.059312 -0.487911 0.000000
v 0.069548 0.352398 -0.066403
v 0.069548 0.352398 0.066403
v 0.069548 0.321173 -0.147052
v 0.069548 -0.172681 0.321860
v 0.069548 -0.274443 0.285362
v 0.069548 0.298089 -0.328902
v 0.069548 -0.074316 -0.328902
v 0.069548 -0.379600 0.219408
v 0.069548 -0.172681 -0.321860
v 0.069548 -0.274443 -0.285362
v 0.069548 -0.488153 0.123999
v 0.069548 -0.379600 -0.219408
v 0.069548 -0.600002 0.000000
v 0.069548 0.321173 0.147052
v 0.069548 0.303105 0.234570
v 0.069548 -0.488153 -0.123999
v 0.069548 -0.074316 0.328902
v 0.069548 0.298089 0.328902
v 0.069548 0.303105 -0.234570
vt 0.464234 0.600600
vt 0.488361 0.607110
vt 0.465587 0.608287
vt 0.599125 0.606428
vt 0.615079 0.607110
vt 0.600875 0.613665
vt 0.423555 0.735562
vt 0.435534 0.756167
vt 0.431658 0.760892
vt 0.560198 0.704485
vt 0.569415 0.617428
vt 0.564963 0.704130
vt 0.448101 0.780065
vt 0.445280 0.786795
vt 0.560232 0.729376
vt 0.570036 0.751109
vt 0.565698 0.755407
vt 0.465760 0.804492
vt 0.464421 0.813273
vt 0.580089 0.776176
vt 0.576594 0.782578
vt 0.488361 0.829434
vt 0.488919 0.840308
vt 0.449648 0.609255
vt 0.437338 0.621254
vt 0.433614 0.614655
vt 0.595152 0.802295
vt 0.592922 0.810889
vt 0.420972 0.710806
vt 0.428058 0.732799
vt 0.421222 0.623258
vt 0.416146 0.616827
vt 0.615079 0.829434
vt 0.614520 0.840306
vt 0.585651 0.617096
vt 0.582623 0.610146
vt 0.452130 0.616272
vt 0.564994 0.727094
vt 0.565024 0.610506
vt 0.425675 0.709960
vt 0.678987 0.895838
vt 0.680995 0.917973
vt 0.678987 0.917973
vt 0.676979 0.778179
vt 0.678987 0.807603
vt 0.676979 0.807603
vt 0.634861 0.851791
vt 0.636869 0.867168
vt 0.634861 0.867168
vt 0.680995 0.939995
vt 0.678987 0.939995
vt 0.676979 0.676999
vt 0.678987 0.699786
vt 0.676979 0.699786
vt 0.636869 0.883458
vt 0.634861 0.883458
vt 0.497886 0.850834
vt 0.499894 0.874311
vt 0.497886 0.874311
vt 0.493744 0.865289
vt 0.495753 0.880666
vt 0.493744 0.880666
vt 0.634861 0.837336
vt 0.636869 0.851791
vt 0.678987 0.851229
vt 0.680995 0.873590
vt 0.678987 0.873590
vt 0.495753 0.896956
vt 0.493744 0.896956
vt 0.676979 0.591534
vt 0.678987 0.676999
vt 0.634861 0.814540
vt 0.636869 0.837336
vt 0.493744 0.850834
vt 0.495753 0.865289
vt 0.678987 0.724246
vt 0.676979 0.724246
vt 0.678987 0.765765
vt 0.680995 0.851229
vt 0.678987 0.750376
vt 0.676979 0.750376
vt 0.680995 0.895838
vt 0.678987 0.778179
vt 0.332660 0.591534
vt 0.332660 0.591534
vt 0.332660 0.591534
vt 0.332660 0.591534
vt 0.332660 0.591534
vt 0.332660 0.591534
vt 0.332660 0.591534
vt 0.332660 0.591534
vt 0.332660 0.591534
vt 0.332660 0.591534
vt 0.332660 0.591534
vt 0.332660 0.591534
vt 0.332660 0.591534
vt 0.332660 0.591534
vt 0.332660 0.591534
vt 0.332660 0.591534
vt 0.332660 0.591534
vt 0.332660 0.591534
vt 0.332660 0.591534
vt 0.332660 0.591534
vt 0.332660 0.591534
vt 0.332660 0.591534
vt 0.332660 0.591534
vt 0.332660 0.591534
vt 0.332660 0.591534
vt 0.332660 0.591534
vt 0.332660 0.591534
vt 0.332660 0.591534
vt 0.332660 0.591534
vt 0.332660 0.591534
vt 0.332660 0.591534
vt 0.332660 0.591534
vt 0.332660 0.591534
vt 0.332660 0.591534
vt 0.332660 0.591534
vt 0.332660 0.591534
vt 0.332660 0.591534
vt 0.332660 0.591534
vt 0.332660 0.591534
vt 0.332660 0.591534
vt 0.491611 0.865289
vt 0.493744 0.880666
vt 0.491611 0.880666
vt 0.489478 0.850834
vt 0.491611 0.865289
vt 0.489478 0.865289
vt 0.678987 0.676999
vt 0.681120 0.699360
vt 0.678987 0.699360
vt 0.493744 0.896956
vt 0.491611 0.896956
vt 0.674845 0.591534
vt 0.676979 0.676999
vt 0.674845 0.676999
vt 0.672712 0.591534
vt 0.674845 0.811065
vt 0.672712 0.811065
vt 0.491611 0.850834
vt 0.493744 0.865289
vt 0.674845 0.699786
vt 0.676979 0.724246
vt 0.674845 0.724246
vt 0.672712 0.814181
vt 0.670578 0.591534
vt 0.672712 0.591534
vt 0.678987 0.591534
vt 0.681120 0.676999
vt 0.676979 0.750376
vt 0.674845 0.750376
vt 0.681120 0.721608
vt 0.678987 0.721608
vt 0.676979 0.778179
vt 0.674845 0.778179
vt 0.681120 0.743743
vt 0.678987 0.743743
vt 0.676979 0.807603
vt 0.674845 0.807603
vt 0.491611 0.880666
vt 0.489478 0.880666
vt 0.681120 0.765765
vt 0.678987 0.765765
vt 0.676979 0.699786
vt 0.491611 0.896956
vt 0.489478 0.896956
vt 0.495753 0.850834
vt 0.497886 0.874311
vt 0.495753 0.874311
vt 0.610261 0.162744
vt 0.632861 0.198003
vt 0.517567 0.252422
vt 0.506267 0.198003
vt 0.517567 0.231774
vt 0.390973 0.252422
vt 0.576362 0.125996
vt 0.483667 0.162744
vt 0.531495 0.087804
vt 0.597220 0.386371
vt 0.562867 0.391165
vt 0.449768 0.125996
vt 0.644160 0.231774
vt 0.644160 0.264057
vt 0.633848 0.385937
vt 0.404902 0.087804
vt 0.470627 0.386371
vt 0.436274 0.391165
vt 0.530807 0.400353
vt 0.517567 0.264057
vt 0.507254 0.385937
vt 0.649285 0.591534
vt 0.649285 0.814540
vt 0.637883 0.709771
vt 0.404213 0.400353
vt 0.660687 0.591534
vt 0.660687 0.814540
vt 0.649285 0.696304
vt 0.615079 0.865917
vt 0.624970 0.892539
vt 0.615079 0.892539
vt 0.624970 0.850465
vt 0.634861 0.865917
vt 0.624970 0.865917
vt 0.670578 0.747657
vt 0.660687 0.719580
vt 0.670578 0.719580
vt 0.670578 0.700270
vt 0.660687 0.599043
vt 0.670578 0.599043
vt 0.670578 0.776994
vt 0.660687 0.747657
vt 0.670578 0.754172
vt 0.660687 0.726928
vt 0.670578 0.726928
vt 0.670578 0.807590
vt 0.660687 0.776994
vt 0.670578 0.782003
vt 0.660687 0.754172
vt 0.670578 0.839408
vt 0.660687 0.807590
vt 0.615079 0.833335
vt 0.624970 0.850465
vt 0.615079 0.850465
vt 0.670578 0.810421
vt 0.660687 0.782003
vt 0.660687 0.692762
vt 0.670578 0.692762
vt 0.615079 0.814540
vt 0.624970 0.833335
vt 0.660687 0.810421
vt 0.624970 0.833335
vt 0.634861 0.850465
vt 0.624970 0.865917
vt 0.660687 0.700270
vt 0.624970 0.814540
vt 0.634861 0.833335
vt 0.660687 0.591534
vt 0.670578 0.591534
vt 0.530568 0.621986
vt 0.555434 0.591534
vt 0.555434 0.740838
vt 0.384472 0.849803
vt 0.368756 0.840478
vt 0.402058 0.767003
vt 0.340644 0.704391
vt 0.386262 0.739754
vt 0.337860 0.731063
vt 0.511435 0.651541
vt 0.351482 0.834660
vt 0.384908 0.766117
vt 0.384674 0.620663
vt 0.411069 0.591534
vt 0.403412 0.740640
vt 0.498209 0.680171
vt 0.364051 0.649191
vt 0.490890 0.707876
vt 0.349374 0.677100
vt 0.489478 0.734657
vt 0.538261 0.754037
vt 0.538261 0.767236
vt 0.542118 0.850834
vt 0.525945 0.842332
vt 0.555434 0.767236
vt 0.411069 0.851178
vt 0.508394 0.837413
vt 0.538261 0.740838
vt 0.385585 0.752935
vt 0.664795 0.258901
vt 0.644160 0.234682
vt 0.664795 0.234682
vt 0.675641 0.154797
vt 0.655006 0.136241
vt 0.675641 0.136241
vt 0.703521 0.112023
vt 0.703521 0.136241
vt 0.673841 0.136241
vt 0.644160 0.136241
vt 0.644160 0.112023
vt 0.685429 0.258901
vt 0.664795 0.234682
vt 0.685429 0.234682
vt 0.655006 0.173352
vt 0.644160 0.154797
vt 0.644160 0.191908
vt 0.664795 0.173352
vt 0.675641 0.191908
vt 0.644160 0.210464
vt 0.664795 0.210464
vt 0.664795 0.210464
vt 0.644160 0.210464
vt 0.664795 0.210464
vt 0.685429 0.210464
vt 0.626481 0.800344
vt 0.637883 0.814540
vt 0.615079 0.814540
vt 0.626481 0.609947
vt 0.615079 0.591534
vt 0.637883 0.591534
vt 0.416269 0.711649
vt 0.579595 0.603197
vt 0.560633 0.603584
vt 0.555434 0.704841
vt 0.555470 0.731659
vt 0.447165 0.602234
vt 0.597375 0.599190
vt 0.590691 0.819483
vt 0.613962 0.851178
vt 0.429890 0.608052
vt 0.411069 0.610392
vt 0.419052 0.738321
vt 0.573099 0.788980
vt 0.463083 0.822049
vt 0.489478 0.851178
vt 0.561359 0.759705
vt 0.442460 0.793522
vt 0.427783 0.765612
vt 0.614520 0.599322
vt 0.489478 0.591534
vt 0.462881 0.592909
vt 0.488919 0.599324
vt 0.499894 0.850834
vt 0.678987 0.591534
vt 0.636869 0.814540
vt 0.495753 0.850834
vt 0.680995 0.765765
vt 0.332660 0.591534
vt 0.332660 0.591534
vt 0.491611 0.850834
vt 0.676979 0.591534
vt 0.674845 0.591534
vt 0.493744 0.850834
vt 0.670578 0.814181
vt 0.681120 0.591534
vt 0.497886 0.850834
vt 0.660687 0.839408
vt 0.624970 0.814540
vt 0.634861 0.814540
vt 0.332660 0.832320
vt 0.489478 0.836048
vt 0.644160 0.258901
vt 0.673841 0.087804
vt 0.703521 0.087804
vt 0.644160 0.087804
vt 0.664795 0.258901
vt 0.675641 0.173352
vt 0.644160 0.173352
vt 0.613962 0.591534
vn -0.9600 0.2799 0.0000
vn 0.9595 -0.2627 0.1017
vn -0.9487 -0.1067 0.2976
vn 0.9435 0.0000 0.3313
vn -0.9533 -0.1605 0.2559
vn 0.9487 0.1067 0.2976
vn -0.9582 -0.1890 0.2150
vn 0.9533 0.1605 0.2559
vn -0.9631 -0.1999 0.1803
vn -0.9582 0.2800 0.0578
vn 0.9582 0.1890 0.2150
vn -0.9440 -0.0236 0.3292
vn -0.9519 0.3060 0.0163
vn 0.9631 0.1999 0.1803
vn 0.9582 -0.2800 0.0578
vn -0.9595 0.2627 0.1017
vn 0.9440 0.0236 0.3292
vn 0.9519 -0.3060 0.0163
vn -0.9435 0.0000 0.3313
vn 0.0000 0.5313 0.8472
vn 0.0000 -0.7425 0.6698
vn 0.0000 0.9793 0.2022
vn 0.0000 0.6602 0.7511
vn 0.0000 -0.0714 0.9974
vn 0.0000 0.9986 0.0531
vn 0.0000 0.7425 0.6698
vn 0.0000 -0.9793 0.2022
vn 0.0000 0.9325 0.3611
vn 0.0000 0.0714 0.9974
vn 0.0000 -0.9986 0.0531
vn 0.0000 0.0000 1.0000
vn 0.0000 1.0000 0.0000
vn 0.0000 -0.9325 0.3611
vn 0.0000 -0.3376 0.9413
vn 0.0000 -0.5313 0.8472
vn 0.0000 0.3376 0.9413
vn 0.0000 -0.6602 0.7511
vn 0.0000 0.0000 -1.0000
vn -1.0000 0.0000 -0.0000
vn 1.0000 -0.0000 -0.0000
vn 0.0000 -1.0000 0.0000
vn 0.0000 0.9325 -0.3611
vn 0.0000 0.3376 -0.9413
vn 0.0000 0.5313 -0.8472
vn 0.0000 -0.3376 -0.9413
vn 0.0000 0.6602 -0.7511
vn 0.0000 -0.5313 -0.8472
vn 0.0000 0.7425 -0.6698
vn 0.0000 -0.9793 -0.2022
vn 0.0000 -0.6602 -0.7511
vn 0.0000 0.0714 -0.9974
vn 0.0000 -0.9986 -0.0531
vn 0.0000 -0.7425 -0.6698
vn 0.0000 0.9793 -0.2022
vn 0.0000 -0.9325 -0.3611
vn 0.0000 -0.0714 -0.9974
vn 0.0000 0.9986 -0.0531
vn -0.9393 -0.3432 0.0000
vn -0.9393 0.3432 0.0000
vn -0.9930 -0.1181 0.0000
vn -0.9958 0.0913 0.0000
vn -0.9941 0.0000 0.1084
vn -0.9941 0.0000 -0.1084
vn -0.9435 0.0000 -0.3313
vn 0.9519 0.3060 -0.0163
vn 0.9440 -0.0236 -0.3292
vn -0.9595 -0.2627 -0.1017
vn 0.9582 0.2800 -0.0578
vn 0.9631 -0.1999 -0.1803
vn -0.9519 -0.3060 -0.0163
vn -0.9440 0.0236 -0.3292
vn 0.9582 -0.1890 -0.2150
vn -0.9582 -0.2800 -0.0578
vn -0.9631 0.1999 -0.1803
vn 0.9533 -0.1605 -0.2559
vn -0.9582 0.1890 -0.2150
vn 0.9487 -0.1067 -0.2976
vn -0.9533 0.1605 -0.2559
vn 0.9435 0.0000 -0.3313
vn -0.9487 0.1067 -0.2976
vn 0.9595 0.2627 -0.1017
vn -0.9600 -0.2799 0.0000
s off
f 141/1/1 30/2/1 20/3/1
f 142/4/2 30/5/2 38/6/2
f 143/7/3 23/8/3 144/9/3
f 146/10/4 31/11/4 36/12/4
f 144/9/5 24/13/5 147/14/5
f 148/15/6 33/16/6 149/17/6
f 147/14/7 25/18/7 150/19/7
f 149/17/8 34/20/8 151/21/8
f 150/19/9 29/22/9 152/23/9
f 153/24/10 27/25/10 154/26/10
f 151/21/11 35/27/11 155/28/11
f 156/29/12 22/30/12 143/7/12
f 154/26/13 21/31/13 157/32/13
f 155/28/14 29/33/14 152/34/14
f 142/4/15 37/35/15 158/36/15
f 153/24/16 20/3/16 28/37/16
f 146/10/17 32/38/17 148/15/17
f 158/36/18 31/11/18 145/39/18
f 156/29/19 21/31/19 26/40/19
f 33/41/20 52/42/20 34/43/20
f 25/44/21 48/45/21 29/46/21
f 28/47/22 46/48/22 27/49/22
f 34/43/23 53/50/23 35/51/23
f 26/52/24 41/53/24 22/54/24
f 27/49/25 40/55/25 21/56/25
f 35/57/26 48/58/26 29/59/26
f 38/60/27 55/61/27 37/62/27
f 20/63/28 47/64/28 28/47/28
f 36/65/29 50/66/29 32/67/29
f 37/62/30 49/68/30 31/69/30
f 21/70/31 45/71/31 26/52/31
f 30/72/32 137/73/32 20/63/32
f 30/74/33 56/75/33 38/60/33
f 22/54/34 42/76/34 23/77/34
f 31/78/31 54/79/31 36/65/31
f 23/77/35 43/80/35 24/81/35
f 32/67/36 51/82/36 33/41/36
f 24/81/37 44/83/37 25/44/37
f 51/84/31 71/85/31 72/86/31
f 44/87/31 63/88/31 64/89/31
f 52/90/31 72/86/31 73/91/31
f 48/92/31 64/89/31 68/93/31
f 46/94/31 67/95/31 66/96/31
f 53/97/31 73/91/31 74/98/31
f 41/99/31 65/100/31 61/101/31
f 40/102/31 66/96/31 60/103/31
f 48/92/31 74/98/31 68/93/31
f 55/104/31 77/105/31 76/106/31
f 58/107/31 69/108/31 79/109/31
f 47/110/31 59/111/31 67/95/31
f 50/112/31 75/113/31 71/85/31
f 49/114/31 76/106/31 70/115/31
f 137/116/31 78/117/31 59/111/31
f 45/118/31 60/103/31 65/100/31
f 56/119/31 69/108/31 77/105/31
f 42/120/31 61/101/31 62/121/31
f 54/122/31 70/115/31 75/113/31
f 43/123/31 62/121/31 63/88/31
f 77/124/27 97/125/27 76/126/27
f 59/127/28 88/128/28 67/129/28
f 75/130/29 92/131/29 71/132/29
f 76/126/30 91/133/30 70/134/30
f 60/135/31 86/136/31 65/137/31
f 69/138/31 100/139/31 79/140/31
f 69/141/33 98/142/33 77/124/33
f 61/143/34 83/144/34 62/145/34
f 78/146/38 80/147/38 59/148/38
f 70/149/31 96/150/31 75/130/31
f 62/145/35 84/151/35 63/152/35
f 71/132/36 93/153/36 72/154/36
f 63/152/37 85/155/37 64/156/37
f 72/154/20 94/157/20 73/158/20
f 64/156/21 89/159/21 68/160/21
f 67/129/22 87/161/22 66/162/22
f 73/158/23 95/163/23 74/164/23
f 65/137/24 82/165/24 61/143/24
f 66/162/25 81/166/25 60/167/25
f 74/168/26 89/169/26 68/170/26
f 84/171/39 83/172/39 101/173/39
f 93/174/40 92/175/40 101/176/40
f 85/177/39 84/171/39 101/173/39
f 94/178/40 93/174/40 101/176/40
f 89/179/39 85/177/39 101/173/39
f 87/180/39 88/181/39 101/173/39
f 95/182/40 94/178/40 101/176/40
f 82/183/39 86/184/39 101/173/39
f 81/185/39 87/180/39 101/173/39
f 89/186/40 95/182/40 101/176/40
f 97/187/40 98/188/40 101/176/40
f 88/181/39 80/189/39 101/173/39
f 92/175/40 96/190/40 101/176/40
f 91/191/40 97/187/40 101/176/40
f 86/184/39 81/185/39 101/173/39
f 100/192/40 90/193/40 101/194/40
f 98/188/40 90/195/40 101/176/40
f 83/172/39 82/183/39 101/173/39
f 80/196/40 99/197/40 101/198/40
f 96/190/40 91/191/40 101/176/40
f 1/199/41 111/200/41 11/201/41
f 19/202/42 111/203/42 11/204/42
f 4/205/43 119/206/43 3/207/43
f 17/208/38 110/209/38 12/210/38
f 5/211/44 118/212/44 4/205/44
f 14/213/45 109/214/45 13/215/45
f 6/216/46 117/217/46 5/211/46
f 15/218/47 108/219/47 14/213/47
f 10/220/48 116/221/48 6/216/48
f 8/222/49 113/223/49 9/224/49
f 16/225/50 107/226/50 15/218/50
f 3/207/51 115/227/51 7/228/51
f 2/229/52 114/230/52 8/222/52
f 10/220/53 106/231/53 16/225/53
f 18/232/54 103/233/54 19/202/54
f 9/224/55 121/234/55 1/199/55
f 13/215/56 105/235/56 17/208/56
f 12/236/57 104/237/57 18/232/57
f 7/228/38 120/238/38 2/239/38
f 106/240/39 112/241/39 123/242/39
f 121/243/40 113/244/40 102/245/40
f 119/246/40 125/247/40 115/248/40
f 107/249/39 106/240/39 123/242/39
f 114/250/40 126/251/40 102/245/40
f 116/252/40 112/253/40 123/254/40
f 108/255/39 107/249/39 123/242/39
f 113/244/40 114/250/40 102/245/40
f 117/256/40 116/252/40 123/254/40
f 109/257/39 108/255/39 123/242/39
f 118/258/40 117/256/40 123/254/40
f 105/259/39 127/260/39 124/261/39
f 111/262/39 103/263/39 102/264/39
f 111/265/40 121/243/40 102/245/40
f 119/246/40 118/258/40 123/254/40
f 104/266/39 124/261/39 102/264/39
f 109/257/39 122/267/39 105/259/39
f 115/248/40 128/268/40 126/251/40
f 103/263/39 104/266/39 102/264/39
f 124/269/32 133/270/32 102/271/32
f 127/272/38 130/273/38 124/274/38
f 134/275/58 136/276/58 131/277/58
f 131/277/59 132/278/59 133/279/59
f 125/280/41 134/281/41 123/282/41
f 127/272/38 135/283/38 129/284/38
f 128/285/31 132/286/31 131/287/31
f 102/271/32 132/288/32 126/289/32
f 128/285/31 136/290/31 125/291/31
f 123/282/41 135/292/41 122/293/41
f 39/294/60 137/295/60 138/296/60
f 139/297/61 58/298/61 57/299/61
f 139/297/62 138/296/62 58/298/62
f 139/297/63 137/295/63 39/294/63
f 7/300/64 157/32/64 156/29/64
f 18/301/65 145/39/65 12/302/65
f 17/303/66 148/15/66 13/304/66
f 9/305/67 141/1/67 153/24/67
f 19/306/68 158/36/68 18/301/68
f 16/307/69 152/34/69 10/308/69
f 8/309/70 157/32/70 2/310/70
f 7/300/71 143/7/71 3/311/71
f 15/312/72 155/28/72 16/307/72
f 9/305/73 154/26/73 8/309/73
f 6/313/74 152/23/74 10/314/74
f 14/315/75 151/21/75 15/312/75
f 5/316/76 150/19/76 6/313/76
f 13/304/77 149/17/77 14/315/77
f 4/317/78 147/14/78 5/316/78
f 17/303/79 145/39/79 146/10/79
f 3/311/80 144/9/80 4/317/80
f 19/306/81 140/318/81 142/4/81
f 11/319/82 141/1/82 1/320/82
f 141/1/1 140/321/1 30/2/1
f 142/4/2 140/318/2 30/5/2
f 143/7/3 22/30/3 23/8/3
f 146/10/4 145/39/4 31/11/4
f 144/9/5 23/8/5 24/13/5
f 148/15/6 32/38/6 33/16/6
f 147/14/7 24/13/7 25/18/7
f 149/17/8 33/16/8 34/20/8
f 150/19/9 25/18/9 29/22/9
f 153/24/10 28/37/10 27/25/10
f 151/21/11 34/20/11 35/27/11
f 156/29/12 26/40/12 22/30/12
f 154/26/13 27/25/13 21/31/13
f 155/28/14 35/27/14 29/33/14
f 142/4/15 38/6/15 37/35/15
f 153/24/16 141/1/16 20/3/16
f 146/10/17 36/12/17 32/38/17
f 158/36/18 37/35/18 31/11/18
f 156/29/19 157/32/19 21/31/19
f 33/41/20 51/82/20 52/42/20
f 25/44/21 44/83/21 48/45/21
f 28/47/22 47/64/22 46/48/22
f 34/43/23 52/42/23 53/50/23
f 26/52/24 45/71/24 41/53/24
f 27/49/25 46/48/25 40/55/25
f 35/57/26 53/322/26 48/58/26
f 38/60/27 56/75/27 55/61/27
f 20/63/28 137/73/28 47/64/28
f 36/65/29 54/79/29 50/66/29
f 37/62/30 55/61/30 49/68/30
f 21/70/31 40/323/31 45/71/31
f 30/72/32 138/324/32 137/73/32
f 30/74/33 138/325/33 56/75/33
f 22/54/34 41/53/34 42/76/34
f 31/78/31 49/326/31 54/79/31
f 23/77/35 42/76/35 43/80/35
f 32/67/36 50/66/36 51/82/36
f 24/81/37 43/80/37 44/83/37
f 51/84/31 50/112/31 71/85/31
f 44/87/31 43/123/31 63/88/31
f 52/90/31 51/84/31 72/86/31
f 48/92/31 44/87/31 64/89/31
f 46/94/31 47/110/31 67/95/31
f 53/97/31 52/90/31 73/91/31
f 41/99/31 45/118/31 65/100/31
f 40/102/31 46/94/31 66/96/31
f 48/92/31 53/97/31 74/98/31
f 55/104/31 56/119/31 77/105/31
f 58/107/31 138/327/31 69/108/31
f 47/110/31 137/116/31 59/111/31
f 50/112/31 54/122/31 75/113/31
f 49/114/31 55/104/31 76/106/31
f 137/116/31 57/328/31 78/117/31
f 45/118/31 40/102/31 60/103/31
f 56/119/31 138/327/31 69/108/31
f 42/120/31 41/99/31 61/101/31
f 54/122/31 49/114/31 70/115/31
f 43/123/31 42/120/31 62/121/31
f 77/124/27 98/142/27 97/125/27
f 59/127/28 80/329/28 88/128/28
f 75/130/29 96/150/29 92/131/29
f 76/126/30 97/125/30 91/133/30
f 60/135/31 81/330/31 86/136/31
f 69/138/31 90/331/31 100/139/31
f 69/141/33 90/332/33 98/142/33
f 61/143/34 82/165/34 83/144/34
f 78/146/38 99/333/38 80/147/38
f 70/149/31 91/334/31 96/150/31
f 62/145/35 83/144/35 84/151/35
f 71/132/36 92/131/36 93/153/36
f 63/152/37 84/151/37 85/155/37
f 72/154/20 93/153/20 94/157/20
f 64/156/21 85/155/21 89/159/21
f 67/129/22 88/128/22 87/161/22
f 73/158/23 94/157/23 95/163/23
f 65/137/24 86/136/24 82/165/24
f 66/162/25 87/161/25 81/166/25
f 74/168/26 95/335/26 89/169/26
f 1/199/41 121/234/41 111/200/41
f 19/202/42 103/233/42 111/203/42
f 4/205/43 118/212/43 119/206/43
f 17/208/38 105/235/38 110/209/38
f 5/211/44 117/217/44 118/212/44
f 14/213/45 108/219/45 109/214/45
f 6/216/46 116/221/46 117/217/46
f 15/218/47 107/226/47 108/219/47
f 10/220/48 112/336/48 116/221/48
f 8/222/49 114/230/49 113/223/49
f 16/225/50 106/231/50 107/226/50
f 3/207/51 119/206/51 115/227/51
f 2/229/52 120/337/52 114/230/52
f 10/220/53 112/336/53 106/231/53
f 18/232/54 104/237/54 103/233/54
f 9/224/55 113/223/55 121/234/55
f 13/215/56 109/214/56 105/235/56
f 12/236/57 110/338/57 104/237/57
f 7/228/38 115/227/38 120/238/38
f 119/246/40 123/254/40 125/247/40
f 114/250/40 120/339/40 126/251/40
f 124/261/39 110/340/39 105/259/39
f 105/259/39 122/267/39 127/260/39
f 104/266/39 110/340/39 124/261/39
f 109/257/39 123/242/39 122/267/39
f 126/251/40 120/339/40 115/248/40
f 115/248/40 125/247/40 128/268/40
f 124/269/32 130/341/32 133/270/32
f 127/272/38 129/284/38 130/273/38
f 131/277/58 129/342/58 134/275/58
f 129/342/58 135/343/58 134/275/58
f 133/279/59 130/344/59 129/342/59
f 129/342/59 131/277/59 133/279/59
f 125/280/41 136/345/41 134/281/41
f 127/272/38 122/346/38 135/283/38
f 128/285/31 126/347/31 132/286/31
f 102/271/32 133/270/32 132/288/32
f 128/285/31 131/287/31 136/290/31
f 123/282/41 134/281/41 135/292/41
f 139/297/62 39/294/62 138/296/62
f 139/297/63 57/299/63 137/295/63
f 7/300/64 2/310/64 157/32/64
f 18/301/65 158/36/65 145/39/65
f 17/303/66 146/10/66 148/15/66
f 9/305/67 1/320/67 141/1/67
f 19/306/68 142/4/68 158/36/68
f 16/307/69 155/28/69 152/34/69
f 8/309/70 154/26/70 157/32/70
f 7/300/71 156/29/71 143/7/71
f 15/312/72 151/21/72 155/28/72
f 9/305/73 153/24/73 154/26/73
f 6/313/74 150/19/74 152/23/74
f 14/315/75 149/17/75 151/21/75
f 5/316/76 147/14/76 150/19/76
f 13/304/77 148/15/77 149/17/77
f 4/317/78 144/9/78 147/14/78
f 17/303/79 12/302/79 145/39/79
f 3/311/80 143/7/80 144/9/80
f 19/306/81 11/348/81 140/318/81
f 11/319/82 140/321/82 141/1/82
